<?xml version="1.0" standalone="no"?>
<!DOCTYPE svg PUBLIC "-//W3C//DTD SVG 20010904//EN"
 "http://www.w3.org/TR/2001/REC-SVG-20010904/DTD/svg10.dtd">
<svg version="1.0" xmlns="http://www.w3.org/2000/svg"
 width="2048.000000pt" height="2048.000000pt" viewBox="0 0 2048.000000 2048.000000"
 preserveAspectRatio="xMidYMid meet">

<g transform="translate(0.000000,2048.000000) scale(0.100000,-0.100000)"
fill="#AD4844" stroke="none">
<path d="M8796 20469 c-421 -55 -788 -317 -980 -697 -41 -81 -85 -209 -112
-322 -18 -71 -19 -241 -21 -3362 l-3 -3288 -3288 -3 c-3121 -2 -3291 -3 -3362
-21 -301 -71 -513 -195 -710 -411 -144 -160 -246 -367 -297 -605 -17 -80 -18
-171 -18 -1520 0 -1349 1 -1440 18 -1520 63 -295 200 -532 417 -724 159 -140
351 -235 590 -292 71 -17 243 -19 3362 -21 l3288 -3 3 -3288 c2 -3121 3 -3291
21 -3362 58 -245 160 -446 305 -604 195 -212 422 -341 711 -403 80 -17 171
-18 1520 -18 1349 0 1440 1 1520 18 236 51 439 150 601 294 215 191 343 412
415 713 17 71 19 243 21 3362 l3 3288 3288 3 c3119 2 3291 4 3362 21 241 57
433 152 591 293 219 194 353 428 416 723 17 80 18 171 18 1520 0 1349 -1 1440
-18 1520 -63 295 -197 529 -416 723 -158 141 -349 236 -591 293 -71 18 -241
19 -3362 21 l-3288 3 -3 3288 c-2 3119 -4 3291 -21 3362 -72 301 -200 522
-415 713 -158 141 -351 236 -591 293 -70 17 -173 18 -1490 20 -789 1 -1445 -2
-1484 -7z"/>
</g>
</svg>
